<svg width="44" height="44" viewBox="0 0 44 44" fill="none" xmlns="http://www.w3.org/2000/svg">
<g clip-path="url(#clip0_1425_7237)">
<path d="M35.1484 21.7792C35.1484 23.2945 34.8959 24.7534 34.4338 26.1129L32.2468 23.9259C32.3899 23.2193 32.4619 22.5002 32.4617 21.7792V19.0925C32.4617 18.7362 32.6033 18.3945 32.8552 18.1426C33.1071 17.8907 33.4488 17.7491 33.8051 17.7491C34.1614 17.7491 34.5031 17.8907 34.755 18.1426C35.0069 18.3945 35.1484 18.7362 35.1484 19.0925V21.7792ZM21.7148 32.5261C23.9126 32.5261 25.9545 31.8678 27.6579 30.7341L29.5869 32.6658C27.669 34.0566 25.4158 34.9125 23.0582 35.1456V40.5863H31.1184C31.4746 40.5863 31.8163 40.7278 32.0683 40.9797C32.3202 41.2316 32.4617 41.5733 32.4617 41.9296C32.4617 42.2859 32.3202 42.6276 32.0683 42.8795C31.8163 43.1314 31.4746 43.273 31.1184 43.273H12.3113C11.955 43.273 11.6134 43.1314 11.3614 42.8795C11.1095 42.6276 10.968 42.2859 10.968 41.9296C10.968 41.5733 11.1095 41.2316 11.3614 40.9797C11.6134 40.7278 11.955 40.5863 12.3113 40.5863H20.3715V35.1456C17.0579 34.8126 13.9862 33.2607 11.7522 30.7908C9.51817 28.321 8.28121 25.1095 8.28125 21.7792V19.0925C8.28125 18.7362 8.42278 18.3945 8.67471 18.1426C8.92664 17.8907 9.26833 17.7491 9.62461 17.7491C9.98089 17.7491 10.3226 17.8907 10.5745 18.1426C10.8264 18.3945 10.968 18.7362 10.968 19.0925V21.7792C10.968 24.6295 12.1002 27.363 14.1157 29.3784C16.1311 31.3938 18.8646 32.5261 21.7148 32.5261ZM29.775 8.34562V21.4541L14.0792 5.7583C14.6943 3.95079 15.9309 2.42021 17.5688 1.43905C19.2067 0.457881 21.1397 0.0898057 23.0236 0.400347C24.9074 0.710888 26.62 1.67989 27.8563 3.13485C29.0927 4.58981 29.7726 6.43631 29.775 8.34562Z" fill="black"/>
<path d="M25.7045 28.7859L13.6519 16.7305V21.7816C13.6515 23.193 14.0217 24.5797 14.7254 25.8031C15.4292 27.0265 16.4419 28.0436 17.6622 28.7528C18.8824 29.462 20.2676 29.8383 21.6789 29.8441C23.0903 29.8499 24.4784 29.485 25.7045 28.7859ZM4.64062 3.92563L36.8813 36.1663L38.7835 34.2641L6.54282 2.02344L4.64062 3.92563Z" fill="black"/>
</g>
<defs>
<clipPath id="clip0_1425_7237">
<rect width="42.9875" height="42.9875" fill="white" transform="translate(0.210938 0.285156)"/>
</clipPath>
</defs>
</svg>
