<svg width="58" height="22" viewBox="0 0 58 22" fill="none" xmlns="http://www.w3.org/2000/svg">
<path d="M28.8723 5.33676C25.0342 5.33676 21.316 5.91695 17.8376 7.00769V14.2019C17.8376 15.107 17.2859 15.9193 16.4943 16.2906C14.1434 17.4277 12.0084 18.8898 10.1134 20.5839C9.68157 21.0017 9.08186 21.2337 8.43417 21.2337C7.76249 21.2337 7.16278 20.9785 6.73099 20.5607L0.781851 14.8053C0.557584 14.5947 0.380188 14.342 0.260558 14.0626C0.140929 13.7832 0.0815895 13.4832 0.0861855 13.1808C0.0861855 12.531 0.350058 11.9508 0.781851 11.5331C8.09833 4.8262 17.9816 0.695312 28.8723 0.695312C39.7631 0.695312 49.6463 4.8262 56.9628 11.5331C57.3946 11.9508 57.6585 12.531 57.6585 13.1808C57.6585 13.8306 57.3946 14.4108 56.9628 14.8285L51.0137 20.5839C50.5819 21.0017 49.9822 21.2569 49.3105 21.2569C48.6628 21.2569 48.0631 21.0017 47.6313 20.6071C45.7218 18.8843 43.5645 17.4382 41.2264 16.3138C40.8219 16.1233 40.4813 15.8262 40.2437 15.4567C40.006 15.0872 39.881 14.6603 39.883 14.2251V7.03089C36.4287 5.91694 32.7105 5.33676 28.8723 5.33676Z" fill="white"/>
</svg>
