<svg width="44" height="44" viewBox="0 0 44 44" fill="none" xmlns="http://www.w3.org/2000/svg">
<path d="M9.80313 3.86719C8.74036 3.86719 7.70146 4.18234 6.81781 4.77278C5.93415 5.36322 5.24542 6.20244 4.83872 7.1843C4.43202 8.16617 4.3256 9.24659 4.53294 10.2889C4.74027 11.3313 5.25204 12.2887 6.00353 13.0402C6.75502 13.7917 7.71248 14.3035 8.75482 14.5108C9.79717 14.7182 10.8776 14.6117 11.8595 14.205C12.8413 13.7983 13.6805 13.1096 14.271 12.226C14.8614 11.3423 15.1766 10.3034 15.1766 9.24063C15.1766 7.8155 14.6104 6.44875 13.6027 5.44103C12.595 4.43332 11.2283 3.86719 9.80313 3.86719ZM22.3412 3.86719C21.2784 3.86719 20.2395 4.18234 19.3558 4.77278C18.4722 5.36322 17.7834 6.20244 17.3767 7.1843C16.97 8.16617 16.8636 9.24659 17.071 10.2889C17.2783 11.3313 17.7901 12.2887 18.5416 13.0402C19.293 13.7917 20.2505 14.3035 21.2928 14.5108C22.3352 14.7182 23.4156 14.6117 24.3975 14.205C25.3793 13.7983 26.2186 13.1096 26.809 12.226C27.3994 11.3423 27.7146 10.3034 27.7146 9.24063C27.7146 7.8155 27.1485 6.44875 26.1407 5.44103C25.133 4.43332 23.7663 3.86719 22.3412 3.86719ZM34.8792 14.6141C35.9419 14.6141 36.9808 14.2989 37.8645 13.7085C38.7482 13.118 39.4369 12.2788 39.8436 11.297C40.2503 10.3151 40.3567 9.23467 40.1494 8.19232C39.942 7.14998 39.4303 6.19252 38.6788 5.44103C37.9273 4.68954 36.9698 4.17777 35.9275 3.97044C34.8851 3.7631 33.8047 3.86952 32.8228 4.27622C31.841 4.68292 31.0018 5.37165 30.4113 6.25531C29.8209 7.13896 29.5057 8.17786 29.5057 9.24063C29.5057 10.6658 30.0719 12.0325 31.0796 13.0402C32.0873 14.0479 33.4541 14.6141 34.8792 14.6141ZM9.80313 16.4052C8.74036 16.4052 7.70146 16.7204 6.81781 17.3108C5.93415 17.9012 5.24542 18.7405 4.83872 19.7223C4.43202 20.7042 4.3256 21.7846 4.53294 22.827C4.74027 23.8693 5.25204 24.8268 6.00353 25.5782C6.75502 26.3297 7.71248 26.8415 8.75482 27.0488C9.79717 27.2562 10.8776 27.1498 11.8595 26.7431C12.8413 26.3364 13.6805 25.6476 14.271 24.764C14.8614 23.8803 15.1766 22.8414 15.1766 21.7787C15.1766 20.3535 14.6104 18.9868 13.6027 17.9791C12.595 16.9713 11.2283 16.4052 9.80313 16.4052ZM22.3412 16.4052C21.2784 16.4052 20.2395 16.7204 19.3558 17.3108C18.4722 17.9012 17.7834 18.7405 17.3767 19.7223C16.97 20.7042 16.8636 21.7846 17.071 22.827C17.2783 23.8693 17.7901 24.8268 18.5416 25.5782C19.293 26.3297 20.2505 26.8415 21.2928 27.0488C22.3352 27.2562 23.4156 27.1498 24.3975 26.7431C25.3793 26.3364 26.2186 25.6476 26.809 24.764C27.3994 23.8803 27.7146 22.8414 27.7146 21.7787C27.7146 20.3535 27.1485 18.9868 26.1407 17.9791C25.133 16.9713 23.7663 16.4052 22.3412 16.4052ZM34.8792 16.4052C33.8164 16.4052 32.7775 16.7204 31.8939 17.3108C31.0102 17.9012 30.3215 18.7405 29.9148 19.7223C29.5081 20.7042 29.4016 21.7846 29.609 22.827C29.8163 23.8693 30.3281 24.8268 31.0796 25.5782C31.8311 26.3297 32.7885 26.8415 33.8309 27.0488C34.8732 27.2562 35.9536 27.1498 36.9355 26.7431C37.9174 26.3364 38.7566 25.6476 39.347 24.764C39.9375 23.8803 40.2526 22.8414 40.2526 21.7787C40.2526 20.3535 39.6865 18.9868 38.6788 17.9791C37.6711 16.9713 36.3043 16.4052 34.8792 16.4052ZM9.80313 28.9432C8.74036 28.9432 7.70146 29.2584 6.81781 29.8488C5.93415 30.4393 5.24542 31.2785 4.83872 32.2603C4.43202 33.2422 4.3256 34.3226 4.53294 35.365C4.74027 36.4073 5.25204 37.3648 6.00353 38.1163C6.75502 38.8678 7.71248 39.3795 8.75482 39.5869C9.79717 39.7942 10.8776 39.6878 11.8595 39.2811C12.8413 38.8744 13.6805 38.1857 14.271 37.302C14.8614 36.4183 15.1766 35.3794 15.1766 34.3167C15.1766 32.8916 14.6104 31.5248 13.6027 30.5171C12.595 29.5094 11.2283 28.9432 9.80313 28.9432ZM22.3412 28.9432C21.2784 28.9432 20.2395 29.2584 19.3558 29.8488C18.4722 30.4393 17.7834 31.2785 17.3767 32.2603C16.97 33.2422 16.8636 34.3226 17.071 35.365C17.2783 36.4073 17.7901 37.3648 18.5416 38.1163C19.293 38.8678 20.2505 39.3795 21.2928 39.5869C22.3352 39.7942 23.4156 39.6878 24.3975 39.2811C25.3793 38.8744 26.2186 38.1857 26.809 37.302C27.3994 36.4183 27.7146 35.3794 27.7146 34.3167C27.7146 32.8916 27.1485 31.5248 26.1407 30.5171C25.133 29.5094 23.7663 28.9432 22.3412 28.9432ZM34.8792 28.9432C33.8164 28.9432 32.7775 29.2584 31.8939 29.8488C31.0102 30.4393 30.3215 31.2785 29.9148 32.2603C29.5081 33.2422 29.4016 34.3226 29.609 35.365C29.8163 36.4073 30.3281 37.3648 31.0796 38.1163C31.8311 38.8678 32.7885 39.3795 33.8309 39.5869C34.8732 39.7942 35.9536 39.6878 36.9355 39.2811C37.9174 38.8744 38.7566 38.1857 39.347 37.302C39.9375 36.4183 40.2526 35.3794 40.2526 34.3167C40.2526 32.8916 39.6865 31.5248 38.6788 30.5171C37.6711 29.5094 36.3043 28.9432 34.8792 28.9432Z" fill="black"/>
</svg>
