<svg width="44" height="44" viewBox="0 0 44 44" fill="none" xmlns="http://www.w3.org/2000/svg">
<path d="M8.35244 5.52779C10.188 4.50038 12.5287 4.25965 14.7662 4.82709C15.8559 5.10221 16.7866 5.80935 17.3454 6.78302L19.2756 10.1489C19.9635 11.3489 20.1622 12.768 19.8303 14.1108C19.4984 15.4535 18.6615 16.6166 17.4937 17.3579L15.7957 18.4369C15.0929 18.8819 14.835 19.5632 14.9962 20.1027C15.5722 22.0328 16.8468 24.1736 18.2482 25.6395C18.6651 26.078 19.4303 26.1811 20.1783 25.7448L21.1176 25.1967C21.7339 24.8375 22.4156 24.6046 23.1229 24.5115C23.8301 24.4185 24.5489 24.4673 25.2371 24.6549C25.9254 24.8426 26.5693 25.1654 27.1315 25.6046C27.6937 26.0438 28.1628 26.5905 28.5114 27.2128L30.2417 30.2972C30.807 31.3074 30.8994 32.5132 30.4996 33.5986C29.7022 35.7544 28.1654 37.4933 26.2761 38.3638C24.3567 39.2472 22.1106 39.2106 20.0773 37.8544C16.8575 35.7093 12.9779 32.0984 9.46367 26.0758C5.9043 19.9716 5.00801 14.7765 5.10903 10.9034C5.17351 8.42514 6.48463 6.57238 8.35244 5.52779ZM32.9606 5.6503C32.9606 5.36528 32.8474 5.09192 32.6459 4.89038C32.4443 4.68884 32.171 4.57561 31.8859 4.57561C31.6009 4.57561 31.3276 4.68884 31.126 4.89038C30.9245 5.09192 30.8113 5.36528 30.8113 5.6503V11.0259H25.4378C25.1528 11.0259 24.8794 11.1391 24.6779 11.3407C24.4764 11.5422 24.3631 11.8155 24.3631 12.1006C24.3631 12.3856 24.4764 12.6589 24.6779 12.8605C24.8794 13.062 25.1528 13.1753 25.4378 13.1753H30.8113V18.5487C30.8113 18.8337 30.9245 19.1071 31.126 19.3086C31.3276 19.5102 31.6009 19.6234 31.8859 19.6234C32.171 19.6234 32.4443 19.5102 32.6459 19.3086C32.8474 19.1071 32.9606 18.8337 32.9606 18.5487V13.1753H38.3341C38.6191 13.1753 38.8925 13.062 39.094 12.8605C39.2955 12.6589 39.4088 12.3856 39.4088 12.1006C39.4088 11.8155 39.2955 11.5422 39.094 11.3407C38.8925 11.1391 38.6191 11.0259 38.3341 11.0259H32.9606V5.65245V5.6503Z" fill="black"/>
</svg>
