<svg width="37" height="37" viewBox="0 0 37 37" fill="none" xmlns="http://www.w3.org/2000/svg">
<g opacity="1">
<path d="M21.1855 18.5715L27.4427 12.7389C27.6371 12.56 27.7884 12.3405 27.8854 12.0966C27.9823 11.8526 28.0225 11.5904 28.003 11.3292C27.9835 11.0679 27.9048 10.8143 27.7726 10.5869C27.6405 10.3595 27.4583 10.1641 27.2393 10.015L19.934 5.0443C19.6601 4.85561 19.3388 4.74438 19.0051 4.72267C18.6714 4.70097 18.3381 4.76962 18.0413 4.92119C17.7537 5.06802 17.5118 5.28851 17.3411 5.55939C17.1704 5.83026 17.0772 6.14146 17.0714 6.46012V16.0015L12.0813 9.84576C11.8116 9.5274 11.4244 9.32748 11.0049 9.28996C10.5854 9.25244 10.1679 9.3804 9.84434 9.6457C9.52073 9.911 9.31751 10.2919 9.27937 10.7046C9.24124 11.1173 9.37131 11.528 9.64098 11.8464L15.0691 18.5715L9.59405 25.389C9.33827 25.7079 9.22105 26.1133 9.26793 26.5169C9.31482 26.9205 9.52202 27.2895 9.84434 27.5435C10.1295 27.7333 10.4705 27.8253 10.8142 27.8051C11.0492 27.804 11.2809 27.7509 11.4921 27.6496C11.7033 27.5484 11.8887 27.4016 12.0344 27.2203L17.0714 20.9722V30.6521C17.0755 31.1229 17.2685 31.573 17.6084 31.9045C17.9482 32.2359 18.4074 32.4219 18.886 32.4219C19.2609 32.4232 19.627 32.3103 19.934 32.0987L27.1924 27.2049C27.4088 27.0544 27.5894 26.8596 27.7217 26.6337C27.8541 26.4079 27.935 26.1564 27.9589 25.8968C27.9795 25.6393 27.9425 25.3806 27.8506 25.1386C27.7588 24.8967 27.6142 24.6775 27.427 24.4964L21.1855 18.5715ZM20.2 8.96857L24.1107 11.6309L20.2 15.2628V8.96857ZM20.2 28.1898V21.9264L24.0638 25.589L20.2 28.1898Z" fill="#2BD150"/>
</g>
</svg>
