<svg width="84" height="84" viewBox="0 0 84 84" fill="none" xmlns="http://www.w3.org/2000/svg">
<path d="M58.6221 62.9927C57.4679 62.9927 56.3618 62.9927 55.2549 62.9927C54.4995 62.9927 54.1217 62.6101 54.1217 61.845C54.1217 61.2801 54.1103 60.7142 54.1279 60.1493C54.1384 59.8325 54.0411 59.6853 53.7107 59.6906C52.893 59.7031 52.0753 59.7013 51.2568 59.6924C50.9456 59.6888 50.8186 59.7968 50.8264 60.1351C50.8475 60.9525 50.8335 61.7709 50.8343 62.5893C50.8343 62.7927 50.8352 62.9909 50.5556 62.9909C49.3304 62.9909 48.1052 62.9909 46.8125 62.9909C46.8125 62.2644 46.8125 61.571 46.8125 60.8776C46.8125 60.0881 46.4313 59.6933 45.6688 59.6933C45.0991 59.6933 44.5294 59.7076 43.9598 59.6888C43.6189 59.6772 43.4953 59.8093 43.5005 60.1547C43.5154 61.0748 43.5058 61.9958 43.5058 62.9454C43.37 62.9632 43.2595 62.99 43.1491 62.99C42.0825 62.9935 41.0168 62.9811 39.9502 62.9998C39.5821 63.006 39.4699 62.8713 39.4805 62.5072C39.5015 61.7191 39.4752 60.9302 39.4927 60.1422C39.4997 59.8156 39.3858 59.6862 39.0659 59.6906C38.2333 59.7013 37.4007 59.6995 36.5681 59.6933C36.2868 59.6906 36.1887 59.8093 36.193 60.0958C36.2071 60.9133 36.1878 61.7325 36.2044 62.55C36.2106 62.8731 36.108 63.0016 35.7803 62.9971C34.7286 62.9828 33.6769 62.9819 32.6252 62.9971C32.2799 63.0016 32.1642 62.865 32.1695 62.5232C32.1835 61.6049 32.1747 60.6857 32.1747 59.6924C31.7961 59.6924 31.4797 59.6924 31.1633 59.6924C30.5937 59.6924 30.024 59.6906 29.4543 59.6924C28.8628 59.6951 28.8619 59.6969 28.861 60.2805C28.861 61.0543 28.8593 61.828 28.8628 62.6009C28.8636 62.8186 28.8251 62.9864 28.5604 62.9855C27.5254 62.9837 26.4903 62.9855 25.3896 62.9855C25.3896 62.8177 25.3896 62.6758 25.3896 62.5339C25.3896 61.5674 25.3992 60.6 25.3799 59.6335C25.3764 59.4675 25.2958 59.248 25.1757 59.1471C20.9058 55.6104 18.2679 51.0634 17.3432 45.5668C16.2644 39.16 17.7464 33.3252 21.5404 28.0999C22.018 27.4422 22.4965 26.7863 22.9645 26.1223C23.5833 25.2432 24.032 24.2972 24.2353 23.2165C24.4746 21.9465 25.4938 21.0889 26.7182 21.013C27.9951 20.9336 29.0862 21.644 29.5341 22.847C29.7663 23.4708 29.7059 24.1 29.5849 24.7363C29.2011 26.7622 28.1853 28.4703 26.9995 30.0928C25.9277 31.5599 24.8041 32.9941 24.0784 34.6871C21.7034 40.2318 22.039 45.5936 25.1512 50.7555C26.0136 52.1852 27.1108 53.415 28.3509 54.5189C28.6419 54.7777 28.84 55.1409 29.1082 55.4292C29.23 55.5604 29.4193 55.7103 29.5779 55.7103C37.8591 55.7246 46.1403 55.7228 54.4215 55.7291C54.6765 55.7291 54.7975 55.6246 54.9307 55.4114C55.1314 55.0901 55.3697 54.7759 55.6484 54.5243C59.5607 50.9929 61.5668 46.5744 61.4564 41.2483C61.3802 37.5893 60.1322 34.3158 57.9736 31.3797C57.0139 30.0749 56.1392 28.6979 55.3066 27.3039C54.7343 26.3463 54.4802 25.2459 54.3268 24.1321C54.1358 22.7453 55.134 21.329 56.4968 21.0586C57.9981 20.7605 59.4696 21.6235 59.7465 23.1183C60.006 24.5212 60.6843 25.6689 61.5002 26.7622C62.9261 28.672 64.2592 30.6309 65.2048 32.8495C69.0356 41.8409 66.5922 52.5332 59.2093 58.8258C58.7492 59.2176 58.5704 59.5612 58.6063 60.1547C58.6633 61.0837 58.6212 62.019 58.6212 62.9909L58.6221 62.9927Z" fill="#5A5A5A"/>
<path d="M44.9675 35.5465C44.9675 37.8668 44.9701 40.188 44.9657 42.5084C44.9631 44.2558 43.7134 45.5507 42.0324 45.5597C40.3383 45.5686 39.0474 44.304 39.0421 42.5673C39.0281 37.8811 39.0272 33.1958 39.0421 28.5095C39.0474 26.7479 40.3462 25.4806 42.0622 25.5002C43.709 25.519 44.964 26.8255 44.9675 28.5399C44.9728 30.8754 44.9684 33.2109 44.9684 35.5465H44.9675Z" fill="#5A5A5A"/>
<path d="M42.024 47.0829C43.691 47.0892 44.9837 48.4207 44.974 50.1208C44.9644 51.8049 43.6358 53.1364 41.9785 53.123C40.3483 53.1105 39.046 51.7656 39.0469 50.0967C39.0486 48.402 40.358 47.0767 42.024 47.082V47.0829Z" fill="#5A5A5A"/>
</svg>
