<svg width="84" height="84" viewBox="0 0 84 84" fill="none" xmlns="http://www.w3.org/2000/svg">
<path d="M51.547 61.2697L50.1991 61.9396L50.982 63.3453L52.3715 62.5228L51.547 61.2697ZM53.9313 61.5996C54.6442 61.1776 54.853 60.2745 54.3976 59.5824C53.9423 58.8903 52.9953 58.6714 52.2824 59.0934L53.9313 61.5996ZM47.0824 56.343L50.1991 61.9396L52.895 60.5999L49.7783 55.0034L47.0824 56.343ZM52.3715 62.5228L53.9313 61.5996L52.2824 59.0934L50.7226 60.0166L52.3715 62.5228Z" fill="#007AD2"/>
<path d="M39.2966 28.4743C35.8044 28.684 32.9287 31.3227 32.5872 34.7368L30.9915 50.6898C30.6843 53.7611 32.4386 56.5521 35.2134 57.7498L35.5284 57.8858L35.5626 57.5438L36.0915 52.256C36.3454 49.7174 38.6333 47.9518 41.2793 48.2011C43.9223 48.4501 45.8119 50.6968 45.5667 53.1487L45.0377 58.4366L45.0035 58.7786L45.3396 58.7039C48.3 58.0466 50.5747 55.6352 50.8819 52.5639L52.478 36.6109C52.8278 33.1138 50.5266 30.0734 47.151 29.2165C47.5685 28.6393 47.8466 27.9281 47.926 27.1351C47.9754 26.6405 47.9439 26.2065 47.837 25.7752L51.8951 23.5598C52.523 23.265 52.6944 22.577 52.4106 21.9974L39.2966 28.4743ZM39.2966 28.4743C38.9998 27.797 38.851 27.1019 38.9324 26.2877C38.9819 25.7931 39.0988 25.3731 39.2892 24.9698L35.746 22.0382C35.1882 21.6317 35.1564 20.9246 35.5497 20.4088C35.9686 19.8594 36.6906 19.8326 37.2149 20.2092L37.2217 20.2142L37.2283 20.2196L40.7855 23.1628C41.6941 22.5644 42.7542 22.235 43.8665 22.3398C45.0535 22.4517 46.034 22.9647 46.7359 23.7176L39.2966 28.4743ZM47.5116 36.0142C47.6067 36.1865 47.599 36.3984 47.4966 36.5642L47.4397 36.6417C45.3894 39.4339 43.6512 40.6853 41.9542 40.5254L41.8683 40.5173C40.2653 40.28 38.7966 38.8046 37.6248 35.7328L37.6186 35.7166L37.6103 35.7015C37.5275 35.5513 37.5773 35.3174 37.764 35.0958L37.7641 35.0956C37.9405 34.886 38.161 34.7895 38.3316 34.8056L46.9198 35.6148C47.1961 35.6408 47.3879 35.7893 47.5114 36.0138L47.5116 36.0142Z" fill="#007AD2" stroke="#007AD2" stroke-width="0.5"/>
<path d="M41.2521 49.4173C39.4592 49.2484 37.8107 50.5556 37.6349 52.3132L36.8012 60.6485C36.6169 62.4909 37.9702 64.0858 39.7679 64.2552C41.5656 64.4246 43.2097 63.112 43.394 61.2697L44.2278 52.9344C44.4036 51.1768 43.0449 49.5862 41.2521 49.4173Z" fill="#007AD2" stroke="#007AD2" stroke-width="0.5"/>
</svg>
