<svg width="84" height="84" viewBox="0 0 84 84" fill="none" xmlns="http://www.w3.org/2000/svg">
<path d="M35.3759 24C15.7968 28.5 -5.59525 47.625 35.3759 60C42.9175 42.9 38.5183 28.875 35.3759 24Z" fill="#007AD2"/>
<path d="M47.6928 24.7467C46.6996 24.7467 45.8945 25.5861 45.8945 26.6217C45.8945 27.6572 46.6996 28.4967 47.6928 28.4967H70.2016C71.1948 28.4967 72 27.6572 72 26.6217C72 25.5861 71.1948 24.7467 70.2016 24.7467H47.6928Z" fill="#007AD2"/>
<path d="M45.8945 34.1217C45.8945 33.0861 46.6996 32.2467 47.6928 32.2467H70.2016C71.1948 32.2467 72 33.0861 72 34.1217C72 35.1572 71.1948 35.9967 70.2016 35.9967H47.6928C46.6996 35.9967 45.8945 35.1572 45.8945 34.1217Z" fill="#007AD2"/>
<path d="M47.6928 39.7491C46.6996 39.7491 45.8945 40.5886 45.8945 41.6241C45.8945 42.6596 46.6996 43.4991 47.6928 43.4991H70.2016C71.1948 43.4991 72 42.6596 72 41.6241C72 40.5886 71.1948 39.7491 70.2016 39.7491H47.6928Z" fill="#007AD2"/>
<path d="M45.8945 49.1229C45.8945 48.0874 46.6996 47.2479 47.6928 47.2479H70.2016C71.1948 47.2479 72 48.0874 72 49.1229C72 50.1584 71.1948 50.9979 70.2016 50.9979H47.6928C46.6996 50.9979 45.8945 50.1584 45.8945 49.1229Z" fill="#007AD2"/>
<path d="M47.6928 54.7444C46.6996 54.7444 45.8945 55.5838 45.8945 56.6194C45.8945 57.6549 46.6996 58.4944 47.6928 58.4944H70.2016C71.1948 58.4944 72 57.6549 72 56.6194C72 55.5838 71.1948 54.7444 70.2016 54.7444H47.6928Z" fill="#007AD2"/>
</svg>
