<svg width="84" height="84" viewBox="0 0 84 84" fill="none" xmlns="http://www.w3.org/2000/svg">
<path d="M24.8125 26.1667C24.8125 24.4151 26.209 23 27.9375 23H34.1875C35.916 23 37.3125 24.4151 37.3125 26.1667H46.6875C46.6875 24.4151 48.084 23 49.8125 23H56.0625C57.791 23 59.1875 24.4151 59.1875 26.1667H60.75C64.1973 26.1667 67 29.0068 67 32.5V54.6667C67 58.1599 64.1973 61 60.75 61H23.25C19.8027 61 17 58.1599 17 54.6667V32.5C17 29.0068 19.8027 26.1667 23.25 26.1667H24.8125ZM54.5 35.6667C54.5 34.7958 53.7969 34.0833 52.9375 34.0833C52.0781 34.0833 51.375 34.7958 51.375 35.6667V38.8333H48.25C47.3906 38.8333 46.6875 39.5458 46.6875 40.4167C46.6875 41.2875 47.3906 42 48.25 42H51.375V45.1667C51.375 46.0375 52.0781 46.75 52.9375 46.75C53.7969 46.75 54.5 46.0375 54.5 45.1667V42H57.625C58.4844 42 59.1875 41.2875 59.1875 40.4167C59.1875 39.5458 58.4844 38.8333 57.625 38.8333H54.5V35.6667ZM24.8125 40.4167C24.8125 41.2875 25.5156 42 26.375 42H35.75C36.6094 42 37.3125 41.2875 37.3125 40.4167C37.3125 39.5458 36.6094 38.8333 35.75 38.8333H26.375C25.5156 38.8333 24.8125 39.5458 24.8125 40.4167Z" fill="#FF0000"/>
</svg>
