<svg width="38" height="37" viewBox="0 0 38 37" fill="none" xmlns="http://www.w3.org/2000/svg">
<path d="M29.4219 6.21484C30.7188 6.21484 31.7656 7.24602 31.7656 8.52344V28.5312C31.7656 29.8087 30.7188 30.8398 29.4219 30.8398C28.125 30.8398 27.0781 29.8087 27.0781 28.5312V8.52344C27.0781 7.24602 28.125 6.21484 29.4219 6.21484ZM10.6719 21.6055C11.9688 21.6055 13.0156 22.6366 13.0156 23.9141V28.5312C13.0156 29.8087 11.9688 30.8398 10.6719 30.8398C9.375 30.8398 8.32812 29.8087 8.32812 28.5312V23.9141C8.32812 22.6366 9.375 21.6055 10.6719 21.6055ZM20.0469 13.9102C21.3438 13.9102 22.3906 14.9413 22.3906 16.2187V28.5312C22.3906 29.8087 21.3438 30.8398 20.0469 30.8398C18.75 30.8398 17.7031 29.8087 17.7031 28.5312V16.2187C17.7031 14.9413 18.75 13.9102 20.0469 13.9102Z" fill="#2BD150"/>
</svg>
