<svg width="74" height="74" viewBox="0 0 74 74" fill="none" xmlns="http://www.w3.org/2000/svg">
<path d="M56.9748 12.6208V20.1968C59.532 22.1131 61.0456 25.1179 61.0456 28.3342V47.2069C61.0456 52.8157 56.4825 57.3787 50.8737 57.3787H45.0534C43.7392 57.3787 42.5003 56.7399 41.7394 55.6719C40.9765 54.6018 40.7772 53.2225 41.2064 51.9816L44.7462 41.7182C44.8113 41.5311 44.7483 41.3866 44.6872 41.2992C44.6221 41.2097 44.5062 41.1039 44.3088 41.1039H38.4722C37.8274 41.1039 37.2191 40.7987 36.8366 40.28C36.4542 39.7612 36.3382 39.0919 36.5254 38.4755L39.3104 29.327C39.345 29.2192 39.3267 29.1195 39.2616 29.03C39.1253 28.8509 38.8364 28.857 38.7103 29.0483L28.6259 44.0394C28.4306 44.3385 28.5323 44.6335 28.6117 44.78C28.691 44.9244 28.8822 45.1706 29.2688 45.1706H34.8755C35.5448 45.1706 36.1734 45.5001 36.5518 46.0535C36.9302 46.6068 37.0136 47.3107 36.7735 47.9352L34.1492 54.7666C33.5491 56.327 32.0233 57.3767 30.3511 57.3767H22.3906C16.7818 57.3767 12.2188 52.8136 12.2188 47.2049V28.3342C12.2188 24.947 13.8951 21.7958 16.7005 19.9018L30.941 10.2915C34.3974 7.96013 38.8649 7.96013 42.3213 10.2915L52.9061 17.4341V12.6208C52.9061 11.4979 53.8154 10.5865 54.9404 10.5865C56.0654 10.5865 56.9748 11.4979 56.9748 12.6208Z" fill="#045457"/>
</svg>
