<svg width="74" height="73" viewBox="0 0 74 73" fill="none" xmlns="http://www.w3.org/2000/svg">
<path d="M42.5784 17.4478L30.8984 13.5469V53.6562L42.5784 59.4962V17.4478Z" fill="#676970"/>
<path d="M28.5649 13.4766L14.9222 17.0504C14.1653 17.2468 13.4924 17.6831 13.0039 18.2937C12.5155 18.904 12.2376 19.6563 12.2124 20.4377V53.562C12.1794 54.6974 12.7134 55.7744 13.6373 56.4352C14.3445 56.9639 15.2074 57.2434 16.0901 57.2295C16.5008 57.2328 16.9098 57.1778 17.3049 57.0662L28.5646 53.6553L28.5649 13.4766Z" fill="#676970"/>
<path d="M59.8416 14.5044C58.778 13.7275 57.4121 13.4941 56.1508 13.8738L44.9141 17.4712V59.5192L58.6266 53.726V53.7256C59.3668 53.5256 60.0231 53.093 60.4984 52.4917C60.9734 51.89 61.2427 51.1514 61.2663 50.3853V17.261C61.261 16.1664 60.731 15.1415 59.8413 14.5043L59.8416 14.5044Z" fill="#676970"/>
<path d="M42.5784 17.4517L30.8984 13.5508V53.6601L42.5784 59.5001V17.4517Z" fill="#676970"/>
<path d="M28.5649 13.4805L14.9222 17.0543C14.1653 17.2507 13.4924 17.687 13.0039 18.2976C12.5155 18.9079 12.2376 19.6602 12.2124 20.4416V53.5659C12.1794 54.7013 12.7134 55.7783 13.6373 56.4391C14.3445 56.9679 15.2074 57.2473 16.0901 57.2335C16.5008 57.2367 16.9098 57.1817 17.3049 57.0701L28.5646 53.6592L28.5649 13.4805Z" fill="#676970"/>
<path d="M59.8416 14.5083C58.778 13.7314 57.4121 13.498 56.1508 13.8777L44.9141 17.4751V59.5231L58.6266 53.7299V53.7295C59.3668 53.5295 60.0231 53.0969 60.4984 52.4956C60.9734 51.894 61.2427 51.1553 61.2663 50.3892V17.2649C61.261 16.1703 60.731 15.1454 59.8413 14.5082L59.8416 14.5083Z" fill="#676970"/>
</svg>
