<svg width="73" height="73" viewBox="0 0 73 73" fill="none" xmlns="http://www.w3.org/2000/svg">
<path d="M62.1303 48.1832V48.5352C62.1303 52.417 57.9136 55.5688 52.683 55.5688C47.4529 55.5688 43.2358 52.4169 43.2358 48.5352C43.2358 44.6535 47.4439 41.5102 52.683 41.5102C53.7707 41.5069 54.8534 41.6483 55.9037 41.931V27.915C55.9017 26.774 55.3737 25.6977 54.4726 24.9978C53.5711 24.298 52.3978 24.0527 51.2919 24.3334L32.3974 29.2287C31.6075 29.4356 30.9085 29.8988 30.4095 30.5449C29.9109 31.1914 29.6404 31.985 29.6404 32.8017V56.0929C29.6404 59.9747 25.4237 63.1264 20.1931 63.1264C14.963 63.1264 10.875 59.9746 10.875 56.0929C10.875 52.2112 15.0831 49.0679 20.3222 49.0679V49.0675C21.4034 49.0655 22.48 49.204 23.5258 49.4797V20.8554C23.527 20.0232 23.8093 19.2161 24.3267 18.5643C24.8444 17.913 25.5667 17.4551 26.3769 17.2657L57.6032 9.97423C58.699 9.72044 59.8503 9.97953 60.7314 10.6786C61.6125 11.3772 62.127 12.4396 62.1294 13.5639L62.1303 48.1832Z" fill="#676970"/>
</svg>
