<svg width="73" height="73" viewBox="0 0 73 73" fill="none" xmlns="http://www.w3.org/2000/svg">
<path d="M63.5023 25.3751L57.1368 19.0679C56.0858 18.0169 54.392 18.0169 53.341 19.0679C52.29 20.1189 52.29 21.8127 53.341 22.8637L58.8889 28.4116V47.2164C58.8889 48.0922 58.1296 48.8516 57.2537 48.8516C56.3778 48.8516 55.6185 48.0922 55.6185 47.2164C55.6185 42.7781 51.9978 39.1571 47.5592 39.1571H47.4423V12.585C47.4423 11.0668 46.2156 9.89844 44.7556 9.89844L15.614 9.89884C14.154 9.89884 12.9274 11.0667 12.9274 12.5855V57.7287H11.4679C10.0079 57.7287 8.78125 58.9553 8.78125 60.4153C8.78125 61.9336 10.0079 63.1019 11.4679 63.1019H48.8439C50.3039 63.1019 51.5305 61.934 51.5305 60.4153C51.5305 58.9553 50.3039 57.7287 48.8439 57.7287H47.3839V44.5303H47.5008C49.0191 44.5303 50.1874 45.7569 50.1874 47.2169C50.1874 51.0714 53.3408 54.2248 57.1953 54.2248C61.0498 54.2248 64.2032 51.0714 64.2032 47.2169V27.3025C64.2614 26.6018 63.9693 25.9008 63.5021 25.3753L63.5023 25.3751ZM37.9231 35.4786L29.3383 49.553C28.6376 50.7209 26.8855 50.1371 26.9438 48.7937L27.5279 39.5665H23.5569C22.5642 39.5665 21.9217 38.4567 22.4472 37.581L31.0903 23.4482C31.791 22.2803 33.5431 22.864 33.4848 24.2075L32.9007 33.4347H36.8717C37.8644 33.4929 38.4486 34.6026 37.9231 35.4789V35.4786Z" fill="#676970"/>
</svg>
