<svg width="73" height="74" viewBox="0 0 73 74" fill="none" xmlns="http://www.w3.org/2000/svg">
<path d="M59.9992 27.4533C50.3575 39.8165 39.3143 50.9865 27.0973 60.7344C26.1791 61.4942 25.0288 61.9056 23.8438 61.8985C22.4539 61.9021 21.1199 61.3435 20.1377 60.3467L13.0391 53.1504C12.232 52.3363 11.8352 51.1934 11.9601 50.0462C12.093 48.8931 12.7322 47.8628 13.7 47.2419L23.339 41.0334L23.3394 41.0338C24.1476 40.5129 25.0812 40.2275 26.0389 40.209C26.9962 40.1901 27.9403 40.4389 28.7675 40.9279L30.2815 41.8275C34.0742 38.3 37.763 34.5257 41.2607 30.6807L40.3908 29.1461C39.9084 28.3075 39.663 27.3505 39.6816 26.38C39.6998 25.4096 39.9814 24.4628 40.4948 23.6435L46.6195 13.8903V13.8899C47.2226 12.908 48.2347 12.2584 49.3683 12.1262C50.5047 12.0069 51.6341 12.4076 52.4481 13.2199L59.5467 20.5394C60.4299 21.4441 60.9615 22.6409 61.0446 23.9109C61.1277 25.1806 60.7565 26.4384 59.9991 27.4533H59.9992Z" fill="#676970"/>
</svg>
