<svg width="73" height="73" viewBox="0 0 73 73" fill="none" xmlns="http://www.w3.org/2000/svg">
<path d="M42.2049 66.9154H30.7987C30.0383 66.9154 29.3792 66.6619 28.8216 66.1549C28.264 65.648 27.9344 65.0143 27.833 64.2539L26.9205 57.182C26.2615 56.9286 25.641 56.6244 25.059 56.2695C24.475 55.9147 23.9042 55.5345 23.3466 55.1289L16.731 57.8664C16.0212 58.1199 15.3115 58.1452 14.6018 57.9424C13.8921 57.7397 13.3344 57.3088 12.9289 56.6497L7.3018 46.8404C6.89624 46.1813 6.76951 45.4716 6.92159 44.7112C7.07367 43.9508 7.45388 43.3424 8.06222 42.8862L13.7653 38.5518C13.7146 38.197 13.6893 37.8543 13.6893 37.5237V35.4706C13.6893 35.1421 13.7146 34.8004 13.7653 34.4456L8.06222 30.1112C7.45388 29.6549 7.07367 29.0466 6.92159 28.2862C6.76951 27.5258 6.89624 26.8161 7.3018 26.157L12.9289 16.3477C13.2837 15.6379 13.8282 15.1939 14.5623 15.0154C15.2983 14.839 16.0212 14.8775 16.731 15.131L23.3466 17.8685C23.9042 17.4629 24.4872 17.0827 25.0955 16.7279C25.7039 16.373 26.3122 16.0688 26.9205 15.8154L27.833 8.74349C27.9344 7.98307 28.264 7.34939 28.8216 6.84245C29.3792 6.3355 30.0383 6.08203 30.7987 6.08203H42.2049C42.9653 6.08203 43.6244 6.3355 44.182 6.84245C44.7396 7.34939 45.0692 7.98307 45.1705 8.74349L46.083 15.8154C46.7421 16.0688 47.3636 16.373 47.9476 16.7279C48.5296 17.0827 49.0994 17.4629 49.657 17.8685L56.2726 15.131C56.9824 14.8775 57.6921 14.8522 58.4018 15.0549C59.1115 15.2577 59.6692 15.6886 60.0747 16.3477L65.7018 26.157C66.1074 26.8161 66.2341 27.5258 66.082 28.2862C65.9299 29.0466 65.5497 29.6549 64.9414 30.1112L59.2383 34.4456C59.289 34.8004 59.3143 35.1421 59.3143 35.4706V37.5237C59.3143 37.8543 59.2636 38.197 59.1622 38.5518L64.8653 42.8862C65.4737 43.3424 65.8539 43.9508 66.006 44.7112C66.1581 45.4716 66.0313 46.1813 65.6258 46.8404L59.9987 56.5737C59.5931 57.2327 59.0233 57.6768 58.2893 57.9059C57.5532 58.1331 56.8303 58.1199 56.1205 57.8664L49.657 55.1289C49.0994 55.5345 48.5164 55.9147 47.908 56.2695C47.2997 56.6244 46.6914 56.9286 46.083 57.182L45.1705 64.2539C45.0692 65.0143 44.7396 65.648 44.182 66.1549C43.6244 66.6619 42.9653 66.9154 42.2049 66.9154ZM36.6539 47.1445C39.5942 47.1445 42.1035 46.1053 44.182 44.0268C46.2605 41.9484 47.2997 39.439 47.2997 36.4987C47.2997 33.5584 46.2605 31.049 44.182 28.9706C42.1035 26.8921 39.5942 25.8529 36.6539 25.8529C33.6629 25.8529 31.1404 26.8921 29.0862 28.9706C27.0341 31.049 26.008 33.5584 26.008 36.4987C26.008 39.439 27.0341 41.9484 29.0862 44.0268C31.1404 46.1053 33.6629 47.1445 36.6539 47.1445Z" fill="#676970"/>
</svg>
