<svg width="55" height="55" viewBox="0 0 55 55" fill="none" xmlns="http://www.w3.org/2000/svg">
<path d="M26.2026 45.8897V29.3315L16.5636 39.125L14.4768 37.0048L25.6064 25.6968L14.4768 14.3888L16.5636 12.2685L26.2026 22.0621V5.50391H26.9976L38.3259 17.0138L29.78 25.6968L38.3259 34.3797L26.9976 45.8897H26.2026ZM29.1838 22.0621L34.1523 17.0138L29.1838 12.0666V22.0621ZM29.1838 39.327L34.1523 34.3797L29.1838 29.3315V39.327ZM13.7315 28.1199C13.069 28.1199 12.4976 27.8843 12.0173 27.4132C11.537 26.942 11.2969 26.3699 11.2969 25.6968C11.2969 25.0237 11.537 24.4347 12.0173 23.9299C12.4976 23.4251 13.069 23.1727 13.7315 23.1727C14.394 23.1727 14.9653 23.4251 15.4456 23.9299C15.9259 24.4347 16.1661 25.0237 16.1661 25.6968C16.1661 26.3699 15.9259 26.942 15.4456 27.4132C14.9653 27.8843 14.394 28.1199 13.7315 28.1199ZM41.5555 28.1199C40.893 28.1199 40.3217 27.8843 39.8414 27.4132C39.3611 26.942 39.1209 26.3699 39.1209 25.6968C39.1209 25.0237 39.3611 24.4347 39.8414 23.9299C40.3217 23.4251 40.893 23.1727 41.5555 23.1727C42.218 23.1727 42.7894 23.4251 43.2697 23.9299C43.75 24.4347 43.9901 25.0237 43.9901 25.6968C43.9901 26.3699 43.75 26.942 43.2697 27.4132C42.7894 27.8843 42.218 28.1199 41.5555 28.1199Z" fill="white"/>
</svg>
