<svg width="37" height="36" viewBox="0 0 37 36" fill="none" xmlns="http://www.w3.org/2000/svg">
<path d="M18.4659 7.36048C18.1436 7.36048 17.8346 7.23246 17.6067 7.0046C17.3788 6.77673 17.2508 6.46767 17.2508 6.14542V2.50022C17.2508 2.17797 17.3788 1.86891 17.6067 1.64104C17.8346 1.41317 18.1436 1.28516 18.4659 1.28516C18.7881 1.28516 19.0972 1.41317 19.3251 1.64104C19.5529 1.86891 19.6809 2.17797 19.6809 2.50022V6.14542C19.6809 6.46767 19.5529 6.77673 19.3251 7.0046C19.0972 7.23246 18.7881 7.36048 18.4659 7.36048ZM18.4659 34.0919C18.1436 34.0919 17.8346 33.9639 17.6067 33.736C17.3788 33.5082 17.2508 33.1991 17.2508 32.8768V29.2316C17.2508 28.9094 17.3788 28.6003 17.6067 28.3725C17.8346 28.1446 18.1436 28.0166 18.4659 28.0166C18.7881 28.0166 19.0972 28.1446 19.3251 28.3725C19.5529 28.6003 19.6809 28.9094 19.6809 29.2316V32.8768C19.6809 33.1991 19.5529 33.5082 19.3251 33.736C19.0972 33.9639 18.7881 34.0919 18.4659 34.0919ZM33.6542 18.9036H30.009C29.6867 18.9036 29.3777 18.7756 29.1498 18.5477C28.9219 18.3198 28.7939 18.0108 28.7939 17.6885C28.7939 17.3663 28.9219 17.0572 29.1498 16.8294C29.3777 16.6015 29.6867 16.4735 30.009 16.4735H33.6542C33.9764 16.4735 34.2855 16.6015 34.5134 16.8294C34.7412 17.0572 34.8692 17.3663 34.8692 17.6885C34.8692 18.0108 34.7412 18.3198 34.5134 18.5477C34.2855 18.7756 33.9764 18.9036 33.6542 18.9036ZM6.92276 18.9036H3.27756C2.95531 18.9036 2.64625 18.7756 2.41838 18.5477C2.19052 18.3198 2.0625 18.0108 2.0625 17.6885C2.0625 17.3663 2.19052 17.0572 2.41838 16.8294C2.64625 16.6015 2.95531 16.4735 3.27756 16.4735H6.92276C7.24501 16.4735 7.55407 16.6015 7.78194 16.8294C8.00981 17.0572 8.13782 17.3663 8.13782 17.6885C8.13782 18.0108 8.00981 18.3198 7.78194 18.5477C7.55407 18.7756 7.24501 18.9036 6.92276 18.9036ZM26.6275 10.742C26.3869 10.7425 26.1516 10.6716 25.9515 10.5382C25.7514 10.4048 25.5954 10.2149 25.5033 9.99264C25.4113 9.77041 25.3873 9.52584 25.4345 9.28998C25.4817 9.05411 25.5979 8.83759 25.7684 8.66789L28.3468 6.08952C28.4596 5.97671 28.5935 5.88722 28.7409 5.82617C28.8883 5.76512 29.0463 5.73369 29.2058 5.73369C29.3654 5.73369 29.5234 5.76512 29.6707 5.82617C29.8181 5.88722 29.9521 5.97671 30.0649 6.08952C30.1777 6.20233 30.2672 6.33626 30.3282 6.48366C30.3893 6.63105 30.4207 6.78903 30.4207 6.94857C30.4207 7.10811 30.3893 7.26609 30.3282 7.41349C30.2672 7.56088 30.1777 7.69481 30.0649 7.80762L27.4865 10.386C27.3738 10.499 27.2399 10.5886 27.0925 10.6497C26.9451 10.7108 26.787 10.7422 26.6275 10.742ZM7.72592 29.6436C7.48538 29.6441 7.2501 29.5731 7.04996 29.4397C6.84981 29.3063 6.69381 29.1164 6.60177 28.8942C6.50973 28.672 6.48578 28.4274 6.53298 28.1915C6.58018 27.9557 6.69639 27.7391 6.86687 27.5694L9.44523 24.9911C9.55805 24.8783 9.69197 24.7888 9.83937 24.7277C9.98677 24.6667 10.1447 24.6352 10.3043 24.6352C10.4638 24.6352 10.6218 24.6667 10.7692 24.7277C10.9166 24.7888 11.0505 24.8783 11.1633 24.9911C11.2761 25.1039 11.3656 25.2378 11.4267 25.3852C11.4877 25.5326 11.5192 25.6906 11.5192 25.8501C11.5192 26.0097 11.4877 26.1676 11.4267 26.315C11.3656 26.4624 11.2761 26.5964 11.1633 26.7092L8.58497 29.2875C8.47228 29.4005 8.33839 29.4902 8.19096 29.5513C8.04354 29.6124 7.8855 29.6437 7.72592 29.6436ZM29.2058 29.6436C29.0463 29.6437 28.8882 29.6124 28.7408 29.5513C28.5934 29.4902 28.4595 29.4005 28.3468 29.2875L25.7684 26.7092C25.6556 26.5964 25.5661 26.4624 25.5051 26.315C25.444 26.1676 25.4126 26.0097 25.4126 25.8501C25.4126 25.6906 25.444 25.5326 25.5051 25.3852C25.5661 25.2378 25.6556 25.1039 25.7684 24.9911C25.8812 24.8783 26.0152 24.7888 26.1625 24.7277C26.3099 24.6667 26.4679 24.6352 26.6275 24.6352C26.787 24.6352 26.945 24.6667 27.0924 24.7277C27.2398 24.7888 27.3737 24.8783 27.4865 24.9911L30.0649 27.5694C30.2354 27.7391 30.3516 27.9557 30.3988 28.1915C30.446 28.4274 30.422 28.672 30.33 28.8942C30.2379 29.1164 30.0819 29.3063 29.8818 29.4397C29.6816 29.5731 29.4464 29.6441 29.2058 29.6436ZM10.3043 10.742C10.1447 10.7422 9.98666 10.7108 9.83924 10.6497C9.69182 10.5886 9.55792 10.499 9.44523 10.386L6.86687 7.80762C6.63903 7.57979 6.51104 7.27078 6.51104 6.94857C6.51104 6.62637 6.63903 6.31736 6.86687 6.08952C7.0947 5.86169 7.40371 5.73369 7.72592 5.73369C8.04812 5.73369 8.35713 5.86169 8.58497 6.08952L11.1633 8.66789C11.3338 8.83759 11.45 9.05411 11.4972 9.28998C11.5444 9.52584 11.5205 9.77041 11.4284 9.99264C11.3364 10.2149 11.1804 10.4048 10.9802 10.5382C10.7801 10.6716 10.5448 10.7425 10.3043 10.742ZM18.4659 25.5828C17.4288 25.5845 16.4016 25.3814 15.4432 24.985C14.4849 24.5886 13.6143 24.0068 12.8814 23.273C11.4022 21.7909 10.5714 19.7825 10.5714 17.6885C10.5714 15.5946 11.4022 13.5862 12.8814 12.1041C14.3638 10.6255 16.3721 9.7951 18.4659 9.7951C20.5596 9.7951 22.5679 10.6255 24.0503 12.1041C25.5295 13.5862 26.3603 15.5946 26.3603 17.6885C26.3603 19.7825 25.5295 21.7909 24.0503 23.273C23.3175 24.0068 22.4469 24.5886 21.4885 24.985C20.5302 25.3814 19.503 25.5845 18.4659 25.5828ZM18.4659 12.2232C17.7478 12.2217 17.0366 12.3622 16.3731 12.6367C15.7095 12.9111 15.1068 13.314 14.5995 13.8222C13.5759 14.8486 13.001 16.239 13.001 17.6885C13.001 19.1381 13.5759 20.5285 14.5995 21.5549C15.6256 22.5791 17.0161 23.1544 18.4659 23.1544C19.9156 23.1544 21.3062 22.5791 22.3322 21.5549C23.3559 20.5285 23.9307 19.1381 23.9307 17.6885C23.9307 16.239 23.3559 14.8486 22.3322 13.8222C21.825 13.314 21.2222 12.9111 20.5587 12.6367C19.8952 12.3622 19.1839 12.2217 18.4659 12.2232Z" fill="black"/>
</svg>
