<svg width="64" height="64" viewBox="0 0 64 64" fill="none" xmlns="http://www.w3.org/2000/svg">
<path d="M29.1712 34.9626C31.197 37.3769 33.5244 39.4094 36.0464 41.0217L40.5717 37.2245C41.141 36.7468 41.9432 36.6651 42.5945 36.9671C44.5506 37.8456 46.5972 38.4169 48.663 38.7147C49.1537 38.7659 49.6162 39.0206 49.9581 39.428C50.3126 39.8505 50.4685 40.3625 50.4337 40.8545L49.9534 47.6344C49.9393 47.8866 49.874 48.1316 49.7614 48.3543C49.6488 48.577 49.4914 48.7727 49.2988 48.9294C48.89 49.2724 48.3858 49.4126 47.8952 49.3615C39.8147 48.2993 31.9998 44.2629 26.2516 37.4124C20.5034 30.5619 17.8853 22.1648 18.2424 14.0227C18.2772 13.5306 18.5029 13.0584 18.9116 12.7154C19.3204 12.3725 19.8246 12.2322 20.3153 12.2833L27.0755 12.9877C27.5662 13.0388 28.0433 13.2813 28.3978 13.7038C28.7397 14.1112 28.8956 14.6232 28.8753 15.103C28.7995 17.2134 29.0285 19.3337 29.5553 21.3979C29.649 21.7528 29.6419 22.1239 29.5349 22.4684C29.4279 22.8129 29.2254 23.1169 28.9506 23.3453L24.4253 27.1425C25.5478 29.9033 27.1454 32.5483 29.1712 34.9626Z" fill="white"/>
</svg>
