<svg width="48" height="48" viewBox="0 0 48 48" fill="none" xmlns="http://www.w3.org/2000/svg">
<g opacity="1">
<path d="M11.3592 10.9222C9.64019 12.6374 8.27699 14.6753 7.34791 16.9188C6.41883 19.1624 5.94218 21.5674 5.94533 23.9957C5.94533 34.2067 14.2233 42.4844 24.4348 42.4844C29.5405 42.4844 34.164 40.4138 37.5104 37.0676C39.2294 35.3524 40.5926 33.3145 41.5216 31.071C42.4507 28.8274 42.9274 26.4224 42.9242 23.9941C42.9242 13.7831 34.6463 5.50544 24.4348 5.50544C19.329 5.50544 14.7055 7.576 11.3592 10.9222ZM35.127 13.2978C36.5338 14.7009 37.6494 16.3682 38.4098 18.2038C39.1702 20.0395 39.5604 22.0073 39.5579 23.9941C39.5579 32.3488 32.7852 39.1213 24.4302 39.1213C22.4432 39.1237 20.4753 38.7336 18.6396 37.9732C16.8039 37.2128 15.1366 36.0972 13.7334 34.6905C12.3265 33.2877 11.2109 31.6207 10.4504 29.7853C9.69003 27.9499 9.29988 25.9823 9.30242 23.9957C9.30242 15.6426 16.0752 8.8701 24.4286 8.8701C26.4154 8.86748 28.3831 9.25758 30.2185 10.018C32.054 10.7784 33.7211 11.894 35.1239 13.3009L35.127 13.2978Z" fill="#FFFFFF"/>
<path d="M24.4369 21.6184L18.4977 15.6794C18.1783 15.3864 17.7582 15.2281 17.3249 15.2375C16.8916 15.2469 16.4788 15.4233 16.1724 15.7298C15.8661 16.0363 15.69 16.4493 15.6809 16.8826C15.6718 17.3158 15.8303 17.7359 16.1235 18.055L16.122 18.0534L22.0612 23.9924L16.122 29.9314C15.829 30.2508 15.6707 30.6709 15.6801 31.1041C15.6895 31.5374 15.8658 31.9503 16.1724 32.2566C16.4789 32.5629 16.8919 32.739 17.3252 32.7481C17.7585 32.7572 18.1785 32.5987 18.4977 32.3055L18.4961 32.307L24.4354 26.368L30.3746 32.307C30.5279 32.4741 30.7135 32.6085 30.92 32.702C31.1266 32.7955 31.35 32.8463 31.5768 32.8512C31.8035 32.8561 32.0288 32.8151 32.2393 32.7306C32.4498 32.6461 32.6409 32.52 32.8013 32.3597C32.9618 32.1994 33.0881 32.0083 33.1727 31.7979C33.2573 31.5875 33.2984 31.3621 33.2937 31.1354C33.2889 30.9087 33.2383 30.6853 33.1449 30.4787C33.0515 30.272 32.9173 30.0864 32.7503 29.933L32.7488 29.9314L26.8095 23.9924L32.7488 18.0534C32.9159 17.9001 33.0502 17.7146 33.1437 17.508C33.2373 17.3014 33.288 17.0781 33.2929 16.8514C33.2978 16.6246 33.2568 16.3993 33.1723 16.1888C33.0879 15.9784 32.9617 15.7872 32.8014 15.6268C32.6411 15.4664 32.45 15.3401 32.2396 15.2555C32.0292 15.1709 31.8038 15.1297 31.5771 15.1345C31.3504 15.1393 31.127 15.1899 30.9203 15.2832C30.7136 15.3766 30.528 15.5108 30.3746 15.6778L30.3731 15.6794L24.4369 21.6184Z" fill="#FFFFFF"/>
</g>
</svg>
