<svg width="254" height="37" viewBox="0 0 254 37" fill="none" xmlns="http://www.w3.org/2000/svg">
<line x1="251.922" y1="13.9576" x2="251.922" y2="22.3466" stroke="#1A1A1A" stroke-opacity="0.6" stroke-width="3.21979" stroke-linecap="round"/>
<line x1="180.516" y1="13.9576" x2="180.516" y2="22.3466" stroke="#1A1A1A" stroke-opacity="0.6" stroke-width="3.21979" stroke-linecap="round"/>
<line x1="189.344" y1="10.2388" x2="189.344" y2="26.0575" stroke="#1A1A1A" stroke-opacity="0.6" stroke-width="3.21979" stroke-linecap="round"/>
<line x1="198.18" y1="7.91849" x2="198.18" y2="28.3807" stroke="#1A1A1A" stroke-opacity="0.6" stroke-width="3.21979" stroke-linecap="round"/>
<line x1="207.016" y1="1.88333" x2="207.016" y2="34.4187" stroke="#1A1A1A" stroke-opacity="0.6" stroke-width="3.21979" stroke-linecap="round"/>
<line x1="215.852" y1="5.13333" x2="215.852" y2="31.6321" stroke="#1A1A1A" stroke-opacity="0.6" stroke-width="3.21979" stroke-linecap="round"/>
<line x1="1.6099" y1="-1.6099" x2="18.8349" y2="-1.6099" transform="matrix(-0.0360101 0.999351 -0.999897 -0.0143332 170.07 8.16797)" stroke="#1A1A1A" stroke-opacity="0.6" stroke-width="3.21979" stroke-linecap="round"/>
<line x1="224.688" y1="10.2388" x2="224.688" y2="30.701" stroke="#1A1A1A" stroke-opacity="0.6" stroke-width="3.21979" stroke-linecap="round"/>
<line x1="135.602" y1="5.13333" x2="135.602" y2="31.6321" stroke="#1A1A1A" stroke-opacity="0.6" stroke-width="3.21979" stroke-linecap="round"/>
<line x1="234.258" y1="1.88333" x2="234.258" y2="34.4187" stroke="#1A1A1A" stroke-opacity="0.6" stroke-width="3.21979" stroke-linecap="round"/>
<line x1="144.438" y1="2.81302" x2="144.438" y2="31.6335" stroke="#1A1A1A" stroke-opacity="0.6" stroke-width="3.21979" stroke-linecap="round"/>
<line x1="243.094" y1="7.91849" x2="243.094" y2="28.3807" stroke="#1A1A1A" stroke-opacity="0.6" stroke-width="3.21979" stroke-linecap="round"/>
<line x1="153.274" y1="12.563" x2="153.274" y2="24.2025" stroke="#1A1A1A" stroke-opacity="0.6" stroke-width="3.21979" stroke-linecap="round"/>
<line x1="1.6099" y1="13.9576" x2="1.6099" y2="22.3466" stroke="#045457" stroke-width="3.21979" stroke-linecap="round"/>
<line x1="98.7896" y1="15.3482" x2="98.7896" y2="21.4154" stroke="#045457" stroke-width="3.21979" stroke-linecap="round"/>
<line x1="10.4458" y1="10.2427" x2="10.4458" y2="26.0614" stroke="#045457" stroke-width="3.21979" stroke-linecap="round"/>
<line x1="19.274" y1="7.91849" x2="19.274" y2="28.3807" stroke="#045457" stroke-width="3.21979" stroke-linecap="round"/>
<line x1="109.102" y1="12.563" x2="109.102" y2="23.7382" stroke="#045457" stroke-width="3.21979" stroke-linecap="round"/>
<line x1="28.1099" y1="1.88333" x2="28.1099" y2="34.4187" stroke="#045457" stroke-width="3.21979" stroke-linecap="round"/>
<line x1="117.93" y1="1.88333" x2="117.93" y2="34.4187" stroke="#045457" stroke-width="3.21979" stroke-linecap="round"/>
<line x1="36.9536" y1="5.13333" x2="36.9536" y2="31.6321" stroke="#045457" stroke-width="3.21979" stroke-linecap="round"/>
<line x1="126.766" y1="7.91849" x2="126.766" y2="28.3807" stroke="#045457" stroke-width="3.21979" stroke-linecap="round"/>
<line x1="45.7818" y1="10.2427" x2="45.7818" y2="30.7049" stroke="#045457" stroke-width="3.21979" stroke-linecap="round"/>
<line x1="55.3521" y1="1.88333" x2="55.3521" y2="34.4187" stroke="#045457" stroke-width="3.21979" stroke-linecap="round"/>
<line x1="64.188" y1="7.91849" x2="64.188" y2="28.3807" stroke="#045457" stroke-width="3.21979" stroke-linecap="round"/>
<line x1="73.024" y1="1.88333" x2="73.024" y2="34.4187" stroke="#045457" stroke-width="3.21979" stroke-linecap="round"/>
<line x1="81.8521" y1="12.563" x2="81.8521" y2="23.7382" stroke="#045457" stroke-width="3.21979" stroke-linecap="round"/>
<line x1="89.9536" y1="10.7036" x2="89.9536" y2="25.5936" stroke="#045457" stroke-width="3.21979" stroke-linecap="round"/>
<line x1="162.11" y1="11.6372" x2="162.11" y2="26.5272" stroke="#1A1A1A" stroke-opacity="0.6" stroke-width="3.21979" stroke-linecap="round"/>
</svg>
