<svg width="29" height="41" viewBox="0 0 29 41" fill="none" xmlns="http://www.w3.org/2000/svg">
<g clip-path="url(#clip0_1425_8513)">
<path fill-rule="evenodd" clip-rule="evenodd" d="M14.5 0C6.48357 0 0 6.4165 0 14.35C0 25.1125 14.5 41 14.5 41C14.5 41 29 25.1125 29 14.35C29 6.4165 22.5164 0 14.5 0ZM4.14286 14.35C4.14286 8.692 8.78286 4.1 14.5 4.1C20.2171 4.1 24.8571 8.692 24.8571 14.35C24.8571 20.254 18.8914 29.0895 14.5 34.604C10.1914 29.1305 4.14286 20.1925 4.14286 14.35Z" fill="#045457"/>
<path d="M14.4989 19.4727C17.3589 19.4727 19.6775 17.1781 19.6775 14.3477C19.6775 11.5172 17.3589 9.22266 14.4989 9.22266C11.6388 9.22266 9.32031 11.5172 9.32031 14.3477C9.32031 17.1781 11.6388 19.4727 14.4989 19.4727Z" fill="#045457"/>
</g>
<defs>
<clipPath id="clip0_1425_8513">
<rect width="29" height="41" fill="white"/>
</clipPath>
</defs>
</svg>
