<svg width="36" height="38" viewBox="0 0 36 38" fill="none" xmlns="http://www.w3.org/2000/svg">
<path fill-rule="evenodd" clip-rule="evenodd" d="M16.9437 1.44196C17.7524 2.81623 17.2813 4.56831 15.8918 5.357C14.5011 6.1426 12.7191 5.66789 11.9111 4.29363C11.1024 2.91936 11.5735 1.16728 12.963 0.381131C14.3531 -0.407569 16.1354 0.0671396 16.9437 1.44204V1.44196Z" fill="#045457"/>
<path fill-rule="evenodd" clip-rule="evenodd" d="M5.61791 31.9696H10.886C10.886 33.3981 9.70535 34.5538 8.24987 34.5538C6.79788 34.5538 5.61791 33.3978 5.61791 31.9696ZM30.583 29.385C32.0385 29.385 33.216 30.5415 33.216 31.9696C33.216 33.3975 32.0385 34.5538 30.583 34.5538C29.1276 34.5538 27.9504 33.3975 27.9504 31.9696C27.9504 31.4454 28.1123 30.932 28.4158 30.5003L29.793 32.2164C30.0489 32.5626 30.4896 32.7122 30.866 32.4991C31.2431 32.2855 31.3137 31.8442 31.1541 31.4457L30.1041 29.4291C30.2615 29.4007 30.4212 29.3849 30.583 29.3849L30.583 29.385ZM12.3339 6.52431C11.4413 6.54444 10.5835 6.99685 10.3503 7.78554L7.83189 16.3628C7.4394 17.6956 7.88426 19.4783 9.94232 19.4783H17.0762L18.49 26.8296C18.7412 28.124 21.2511 28.1423 21.151 26.8246L20.5152 18.5177C20.4133 17.1843 19.8634 16.6863 18.88 16.5575L13.2551 15.8227L13.7552 11.7054L15.9931 13.5649C16.4559 13.9501 16.773 14.0139 17.3305 14.0734L20.7983 14.4462C21.0813 14.4772 21.3558 14.793 21.4738 15.0795L25.6741 25.1724C26.627 27.4587 25.8836 29.015 22.8453 29.015H17.4278C15.0805 29.015 14.0535 27.1425 14.5929 25.3728C14.9226 24.2915 15.2211 23.6617 15.7076 22.9144C15.9042 22.6091 16.1686 22.3338 16.1686 21.7656C16.1686 21.199 15.5846 20.6258 14.8599 20.6258H3.52869C2.80396 20.6258 2.21998 21.1983 2.21998 21.9102V21.9437C2.21998 22.655 2.80335 23.2257 3.52869 23.2257H3.91676C1.37033 24.8282 -0.244496 27.9185 0.0303633 30.6389C0.149943 31.828 0.85163 31.9692 1.37033 31.9692H3.04251C3.04251 34.7926 5.37377 37.0807 8.25054 37.0807C11.1298 37.0807 13.4621 34.792 13.4621 31.9692H25.3724C25.3724 34.7926 27.7068 37.0807 30.583 37.0807C33.4598 37.0807 35.7917 34.792 35.7917 31.9692C35.7917 31.073 35.5478 30.1914 35.09 29.4157L35.409 29.464C35.9955 29.5523 36.1472 28.8484 35.8563 28.2295C34.8994 26.1739 32.8549 24.826 30.5909 24.7155C30.3738 24.7052 30.1697 24.5792 30.1697 24.3138V23.9029C30.1697 23.4078 30.1722 23.0046 29.7747 22.4679L24.129 14.7537C23.847 14.2713 23.9173 14.0019 24.4146 14.0019H25.3649C26.0085 14.0019 26.4727 13.8706 26.3805 13.1382L26.0975 11.3013C26.0271 10.7291 25.7779 10.3389 24.938 10.3389H23.446C22.0795 10.3389 21.2478 11.3455 20.5436 12.3191L17.5725 11.3808L14.1937 7.30169C13.7394 6.75204 13.0273 6.50864 12.3338 6.52413L12.3339 6.52431Z" fill="#045457"/>
</svg>
