<svg width="39" height="39" viewBox="0 0 39 39" fill="none" xmlns="http://www.w3.org/2000/svg">
<path d="M19.2653 0.726562C8.76734 0.726562 0.226562 9.26734 0.226562 19.7653C0.226562 30.2633 8.76734 38.804 19.2653 38.804C29.7633 38.804 38.304 30.2633 38.304 19.7653C38.304 9.26734 29.7633 0.726562 19.2653 0.726562ZM19.2653 34.9963C10.8673 34.9963 4.03431 28.1633 4.03431 19.7653C4.03431 11.3673 10.8673 4.53431 19.2653 4.53431C27.6633 4.53431 34.4963 11.3673 34.4963 19.7653C34.4963 28.1633 27.6633 34.9963 19.2653 34.9963Z" fill="#747474"/>
<path d="M21.1749 10.2422H17.3672V20.5498L23.6366 26.8192L26.3287 24.1271L21.1749 18.9734V10.2422Z" fill="#747474"/>
</svg>
