<svg width="42" height="42" viewBox="0 0 42 42" fill="none" xmlns="http://www.w3.org/2000/svg">
<path d="M23.1332 17.8755L5.97376 17.8755C5.02999 17.8755 4.25781 18.6477 4.25781 19.5914C4.25781 20.5352 5.02999 21.3074 5.97376 21.3074L23.1332 21.3074C24.077 21.3074 24.8491 20.5352 24.8491 19.5914C24.8491 18.6477 24.077 17.8755 23.1332 17.8755ZM23.1332 11.0117L5.97376 11.0117C5.02999 11.0117 4.25781 11.7839 4.25781 12.7277C4.25781 13.6714 5.02999 14.4436 5.97376 14.4436L23.1332 14.4436C24.077 14.4436 24.8491 13.6714 24.8491 12.7277C24.8491 11.7839 24.077 11.0117 23.1332 11.0117ZM31.7129 24.7393L31.7129 19.5914C31.7129 18.6477 30.9408 17.8755 29.997 17.8755C29.0532 17.8755 28.281 18.6477 28.281 19.5914L28.281 24.7393H23.1332C22.1894 24.7393 21.4173 25.5114 21.4173 26.4552C21.4173 27.399 22.1894 28.1712 23.1332 28.1712H28.281V33.319C28.281 34.2628 29.0532 35.0349 29.997 35.0349C30.9408 35.0349 31.7129 34.2628 31.7129 33.319V28.1712H36.8608C37.8045 28.1712 38.5767 27.399 38.5767 26.4552C38.5767 25.5114 37.8045 24.7393 36.8608 24.7393L31.7129 24.7393ZM5.97376 28.1712L16.2694 28.1712C17.2132 28.1712 17.9854 27.399 17.9854 26.4552C17.9854 25.5114 17.2132 24.7393 16.2694 24.7393H5.97376C5.02999 24.7393 4.25781 25.5114 4.25781 26.4552C4.25781 27.399 5.02999 28.1712 5.97376 28.1712Z" fill="#C7C5D0"/>
</svg>
