<svg width="34" height="28" viewBox="0 0 34 28" fill="none" xmlns="http://www.w3.org/2000/svg">
<g filter="url(#filter0_di_1425_7815)">
<path d="M5.63994 21.2533H6.5663V16.375H5.80837C5.72416 16.7057 5.47151 16.9538 5.21887 17.1192C4.96622 17.3672 4.71358 17.5326 4.46094 17.5326V18.3594C4.88201 18.194 5.30308 17.946 5.63994 17.6153V21.2533Z" fill="#C7C5D0"/>
<path d="M5.89866 24.8068C8.50931 24.8068 10.6989 23.1532 11.4568 20.838H21.4783C23.8364 20.838 26.0259 19.9285 27.7102 18.2749C29.3945 16.6212 30.3209 14.3887 30.3209 11.9909C30.3209 10.9987 30.1524 10.0892 29.8998 9.17969L25.5206 11.7429C25.5206 11.8256 25.5206 11.9082 25.5206 12.0736C25.5206 14.3061 23.7521 16.1251 21.5626 16.1251H11.2042C10.1936 14.2234 8.25667 12.9831 5.98288 12.9831C2.69851 12.9831 0.0878594 15.629 0.0878594 18.9363C0.00364494 22.161 2.69851 24.8068 5.89866 24.8068ZM5.89866 14.8022C8.08824 14.8022 9.85674 16.6212 9.85674 18.771C9.85674 21.0034 8.08824 22.7398 5.89866 22.7398C3.70908 22.7398 1.94058 20.9207 1.94058 18.771C1.94058 16.6212 3.70908 14.8022 5.89866 14.8022Z" fill="#C7C5D0"/>
<path d="M1.179 13.9735C1.7685 13.312 2.52644 12.8159 3.36858 12.4852C3.87387 12.3198 4.37916 12.1545 4.88444 12.0718V11.9891C4.88444 9.75663 6.65295 7.9376 8.84253 7.9376H18.5272V11.0796L28.1277 5.53978L18.5272 0V3.14197H8.75831C6.4003 3.14197 4.21073 4.05148 2.61065 5.78783C0.92636 7.4415 0 9.67395 0 11.9891C0 12.9813 0.168429 13.8908 0.421073 14.8003C0.673716 14.5523 0.92636 14.2215 1.179 13.9735Z" fill="#C7C5D0"/>
</g>
<defs>
<filter id="filter0_di_1425_7815" x="0" y="0" width="33.0764" height="27.5608" filterUnits="userSpaceOnUse" color-interpolation-filters="sRGB">
<feFlood flood-opacity="0" result="BackgroundImageFix"/>
<feColorMatrix in="SourceAlpha" type="matrix" values="0 0 0 0 0 0 0 0 0 0 0 0 0 0 0 0 0 0 127 0" result="hardAlpha"/>
<feOffset dx="1.37806" dy="1.37806"/>
<feGaussianBlur stdDeviation="0.689028"/>
<feColorMatrix type="matrix" values="0 0 0 0 1 0 0 0 0 1 0 0 0 0 1 0 0 0 1 0"/>
<feBlend mode="normal" in2="BackgroundImageFix" result="effect1_dropShadow_1425_7815"/>
<feBlend mode="normal" in="SourceGraphic" in2="effect1_dropShadow_1425_7815" result="shape"/>
<feColorMatrix in="SourceAlpha" type="matrix" values="0 0 0 0 0 0 0 0 0 0 0 0 0 0 0 0 0 0 127 0" result="hardAlpha"/>
<feOffset dx="1.37806" dy="1.37806"/>
<feGaussianBlur stdDeviation="0.689028"/>
<feComposite in2="hardAlpha" operator="arithmetic" k2="-1" k3="1"/>
<feColorMatrix type="matrix" values="0 0 0 0 0 0 0 0 0 0 0 0 0 0 0 0 0 0 0.1 0"/>
<feBlend mode="normal" in2="shape" result="effect2_innerShadow_1425_7815"/>
</filter>
</defs>
</svg>
