<svg width="31" height="31" viewBox="0 0 31 31" fill="none" xmlns="http://www.w3.org/2000/svg">
<g filter="url(#filter0_di_1425_7807)">
<path d="M5.94773 5.74649C6.75462 6.0312 7.45334 6.55919 7.94757 7.25767C8.44181 7.95615 8.70722 8.79074 8.70721 9.64639C8.70722 10.502 8.44181 11.3366 7.94757 12.0351C7.45334 12.7336 6.75462 13.2616 5.94772 13.5463L5.94772 27.5611L3.19161 27.5611L3.19161 13.5463C2.38472 13.2616 1.686 12.7336 1.19176 12.0351C0.697532 11.3366 0.432123 10.502 0.432123 9.64639C0.432123 8.79074 0.697532 7.95615 1.19176 7.25767C1.686 6.55919 2.38472 6.0312 3.19161 5.74649L3.19161 -1.08441e-06L5.94773 -9.63936e-07L5.94773 5.74649ZM15.5941 14.0148C16.401 14.2995 17.0997 14.8275 17.594 15.526C18.0882 16.2245 18.3536 17.0591 18.3536 17.9147C18.3536 18.7704 18.0882 19.605 17.594 20.3034C17.0997 21.0019 16.401 21.5299 15.5941 21.8146L15.5941 27.5611L12.838 27.5611L12.838 21.8146C12.0311 21.5299 11.3324 21.0019 10.8382 20.3034C10.3439 19.605 10.0785 18.7704 10.0785 17.9147C10.0785 17.0591 10.3439 16.2245 10.8382 15.526C11.3324 14.8275 12.0311 14.2995 12.838 14.0148L12.838 -6.62752e-07L15.5941 -5.42278e-07L15.5941 14.0148ZM25.2405 5.74649C26.0474 6.0312 26.7461 6.55919 27.2404 7.25767C27.7346 7.95615 28 8.79074 28 9.64639C28 10.502 27.7346 11.3366 27.2404 12.0351C26.7461 12.7336 26.0474 13.2616 25.2405 13.5463L25.2405 27.5611L22.4844 27.5611L22.4844 13.5463C21.6775 13.2616 20.9788 12.7336 20.4845 12.0351C19.9903 11.3366 19.7249 10.502 19.7249 9.64639C19.7249 8.79074 19.9903 7.95615 20.4845 7.25767C20.9788 6.55919 21.6775 6.0312 22.4844 5.74649L22.4844 -2.41095e-07L25.2405 -1.20621e-07L25.2405 5.74649Z" fill="#C7C5D0"/>
</g>
<defs>
<filter id="filter0_di_1425_7807" x="0.429688" y="0" width="30.3264" height="30.3186" filterUnits="userSpaceOnUse" color-interpolation-filters="sRGB">
<feFlood flood-opacity="0" result="BackgroundImageFix"/>
<feColorMatrix in="SourceAlpha" type="matrix" values="0 0 0 0 0 0 0 0 0 0 0 0 0 0 0 0 0 0 127 0" result="hardAlpha"/>
<feOffset dx="1.37806" dy="1.37806"/>
<feGaussianBlur stdDeviation="0.689028"/>
<feColorMatrix type="matrix" values="0 0 0 0 1 0 0 0 0 1 0 0 0 0 1 0 0 0 1 0"/>
<feBlend mode="normal" in2="BackgroundImageFix" result="effect1_dropShadow_1425_7807"/>
<feBlend mode="normal" in="SourceGraphic" in2="effect1_dropShadow_1425_7807" result="shape"/>
<feColorMatrix in="SourceAlpha" type="matrix" values="0 0 0 0 0 0 0 0 0 0 0 0 0 0 0 0 0 0 127 0" result="hardAlpha"/>
<feOffset dx="1.37806" dy="1.37806"/>
<feGaussianBlur stdDeviation="0.689028"/>
<feComposite in2="hardAlpha" operator="arithmetic" k2="-1" k3="1"/>
<feColorMatrix type="matrix" values="0 0 0 0 0 0 0 0 0 0 0 0 0 0 0 0 0 0 0.1 0"/>
<feBlend mode="normal" in2="shape" result="effect2_innerShadow_1425_7807"/>
</filter>
</defs>
</svg>
