<svg width="28" height="28" viewBox="0 0 28 28" fill="none" xmlns="http://www.w3.org/2000/svg">
<path d="M19.8754 16.5323C22.0926 16.5323 23.8823 18.3221 23.8823 20.5393C23.8823 22.7565 22.0926 24.5462 19.8754 24.5462C17.6582 24.5462 15.8684 22.7565 15.8684 20.5393C15.8684 20.2187 15.9085 19.9249 15.9886 19.6177L10.1384 16.5457C9.40384 17.3604 8.36203 17.868 7.18665 17.868C4.96946 17.868 3.17969 16.0782 3.17969 13.861C3.17969 11.6438 4.96946 9.85405 7.18665 9.85405C8.36203 9.85405 9.40384 10.375 10.1384 11.1763L15.9886 8.10434C15.9085 7.79714 15.8684 7.5033 15.8684 7.18274C15.8684 4.96556 17.6582 3.17578 19.8754 3.17578C22.0926 3.17578 23.8823 4.96556 23.8823 7.18274C23.8823 9.39993 22.0926 11.1897 19.8754 11.1897C18.7 11.1897 17.6582 10.6688 16.9236 9.86741L11.0734 12.9394C11.2352 13.5432 11.2352 14.1789 11.0734 14.7826L16.9236 17.8546C17.6582 17.0399 18.7 16.5323 19.8754 16.5323Z" fill="#C7C5D0"/>
</svg>
