<svg width="44" height="44" viewBox="0 0 44 44" fill="none" xmlns="http://www.w3.org/2000/svg">
<rect width="44" height="44" rx="4" fill="white"/>
<path d="M23.1294 21.9767L29.7656 15.3505C29.8931 15.1951 29.9583 14.9979 29.9484 14.7972C29.9386 14.5964 29.8544 14.4066 29.7123 14.2645C29.5702 14.1223 29.3803 14.0382 29.1796 14.0283C28.9788 14.0185 28.7816 14.0836 28.6263 14.2111L22 20.8474L15.3737 14.2111C15.2184 14.0836 15.0212 14.0185 14.8204 14.0283C14.6197 14.0382 14.4298 14.1223 14.2877 14.2645C14.1456 14.4066 14.0614 14.5964 14.0516 14.7972C14.0417 14.9979 14.1069 15.1951 14.2344 15.3505L20.8706 21.9767L14.2344 28.603C14.0842 28.7546 14 28.9593 14 29.1727C14 29.3861 14.0842 29.5908 14.2344 29.7424C14.3872 29.8902 14.5915 29.9728 14.804 29.9728C15.0166 29.9728 15.2209 29.8902 15.3737 29.7424L22 23.1061L28.6263 29.7424C28.7791 29.8902 28.9834 29.9728 29.196 29.9728C29.4085 29.9728 29.6128 29.8902 29.7656 29.7424C29.9158 29.5908 30 29.3861 30 29.1727C30 28.9593 29.9158 28.7546 29.7656 28.603L23.1294 21.9767Z" fill="#565656"/>
</svg>
