<svg width="54" height="51" viewBox="0 0 54 51" fill="none" xmlns="http://www.w3.org/2000/svg">
<path d="M52.1538 4.34265V1.51492C52.1538 0.706914 51.439 0.000360481 50.6232 0.000360481C49.8066 0.000360481 49.0919 0.706932 49.0919 1.51492V4.34265H47.2551V1.51492C47.2551 0.706914 46.5403 0.000360481 45.7245 0.000360481C44.9079 0.000360481 44.1938 0.707635 44.1938 1.51492L44.1931 4.34265C43.1722 4.44338 42.3564 5.2514 42.3564 6.36227V7.37246C42.3564 9.69505 43.6834 11.614 45.6227 12.6241V28.9843C45.6227 31.8121 43.2755 34.1347 40.4177 34.1347H35.2128L35.2113 5.04951C35.2113 2.22178 32.966 0 30.1082 0H8.47114C5.6134 0 3.36804 2.22178 3.36804 5.04951V44.3347C1.53129 44.3347 0 45.8492 0 47.6673C0 49.4848 1.53064 51 3.36804 51H35.2113C37.0481 51 38.5794 49.4854 38.5794 47.6673C38.5794 45.8499 37.0487 44.3347 35.2113 44.3347V39.083H40.4163C46.1316 39.083 50.7244 34.5386 50.7244 28.8832L50.7251 12.523C52.6644 11.6142 53.9914 9.5946 53.9914 7.27129V6.2611C54.0932 5.25161 53.2766 4.44364 52.1539 4.34211L52.1538 4.34265ZM25.3116 20.1985L20.2085 31.4084C19.4937 32.9229 17.249 32.4185 17.249 30.8025V23.0261H14.6975C13.5748 23.0261 12.8607 21.9152 13.2687 20.905L18.3718 9.69505C19.0865 8.18049 21.3312 8.68486 21.3312 10.3009V18.0773H23.8827C25.0054 18.0773 25.8221 19.1882 25.3116 20.1985Z" fill="#045457"/>
</svg>
