<svg width="9" height="11" viewBox="0 0 9 11" fill="none" xmlns="http://www.w3.org/2000/svg">
<path d="M8.72514 2.98525L6.14073 0.286654C5.77626 -0.0955513 5.17987 -0.0955513 4.8154 0.286654C4.45094 0.668859 4.45094 1.29426 4.8154 1.67647L5.79836 2.70727H2.77217C1.23698 2.70727 0 4.00451 0 5.61434V10.0155C0 10.5598 0.419711 11 0.938822 11C1.45791 11 1.87764 10.5599 1.87764 10.0155V5.61434C1.87764 5.09317 2.28627 4.66458 2.78333 4.66458H5.80953L4.82657 5.69537C4.4621 6.07758 4.4621 6.70298 4.82657 7.08519C5.01431 7.28207 5.24628 7.37474 5.48928 7.37474C5.73228 7.37474 5.96415 7.28207 6.15199 7.08519L8.7364 4.37501C9.08971 3.9928 9.08971 3.37896 8.72523 2.98519L8.72514 2.98525Z" fill="white"/>
</svg>
