<svg width="25" height="33" viewBox="0 0 25 33" fill="none" xmlns="http://www.w3.org/2000/svg">
<g opacity="0.6">
<path d="M24.1519 12.7276C24.1519 19.567 20.3038 23.6254 12.1267 32.0464C3.94961 23.6254 0.101562 19.567 0.101562 12.7276C0.101562 5.88819 5.48541 0.34375 12.1267 0.34375C18.768 0.34375 24.1519 5.88819 24.1519 12.7276Z" fill="#69FFF6"/>
</g>
<path d="M6.41406 18.2031H19.0465" stroke="black" stroke-linecap="round" stroke-linejoin="round"/>
<path d="M14.1549 6.40625H8.72554C8.35072 6.40625 8.04688 6.7101 8.04688 7.08492V17.9436H14.8336V7.08492C14.8336 6.7101 14.5297 6.40625 14.1549 6.40625Z" stroke="black" stroke-linecap="round" stroke-linejoin="round"/>
<path d="M12.7095 11.3587H11.6163V10.2655C11.6163 10.1673 11.5507 10.0811 11.4561 10.0548C11.3614 10.0286 11.2609 10.0687 11.2102 10.1528L9.89838 12.3392C9.85787 12.4068 9.8567 12.4909 9.89555 12.5595C9.9343 12.6281 10.007 12.6705 10.0858 12.6705H11.179V13.7637C11.179 13.862 11.2445 13.9482 11.3393 13.9744C11.3583 13.9797 11.3779 13.9823 11.3976 13.9823C11.4743 13.9823 11.5455 13.9421 11.585 13.8763L12.8969 11.69C12.9374 11.6224 12.9385 11.5383 12.8997 11.4697C12.8609 11.4011 12.7882 11.3587 12.7095 11.3587ZM11.6163 12.9745V12.4519C11.6163 12.3939 11.5932 12.3383 11.5522 12.2973C11.5112 12.2563 11.4556 12.2332 11.3976 12.2332H10.4719L11.179 11.0547V11.5773C11.179 11.6353 11.202 11.6909 11.243 11.7319C11.284 11.7729 11.3396 11.796 11.3976 11.796H12.3233L11.6163 12.9745Z" fill="black"/>
<path fill-rule="evenodd" clip-rule="evenodd" d="M17.366 10.4141V15.7708C17.366 16.0753 17.1238 16.3174 16.8194 16.3174C16.5149 16.3174 16.2728 16.0753 16.2728 15.7708V12.6005C16.2728 12.12 15.8786 11.7259 15.3982 11.7259H14.9609V12.1632H15.3982C15.6423 12.1632 15.8355 12.3563 15.8355 12.6005V15.7708C15.8355 16.3116 16.2785 16.7547 16.8194 16.7547C17.3602 16.7547 17.8033 16.3116 17.8033 15.7708V10.4141H17.366Z" fill="black" stroke="black" stroke-width="0.1"/>
<path d="M16.4921 8.22657C16.3713 8.22657 16.2734 8.32447 16.2734 8.44521V9.5384C16.2734 10.2604 16.8634 10.8502 17.5853 10.8502C17.6415 10.8495 17.6954 10.8272 17.7356 10.7879C18.3766 10.7027 18.8971 10.2017 18.8971 9.5383V8.4451V8.4452C18.8971 8.32446 18.7992 8.22656 18.6785 8.22656L16.4921 8.22657ZM16.7107 8.66384H18.4598V9.5384C18.4598 10.024 18.0709 10.413 17.5853 10.413C17.0997 10.413 16.7107 10.024 16.7107 9.5384V8.66384Z" fill="black" stroke="black" stroke-width="0.1"/>
<path fill-rule="evenodd" clip-rule="evenodd" d="M16.7109 7.13281V8.44389H17.148V7.13281H16.7109Z" fill="black" stroke="black" stroke-width="0.1"/>
<path fill-rule="evenodd" clip-rule="evenodd" d="M18.0234 7.13281V8.44389H18.4605V7.13281H18.0234Z" fill="black" stroke="black" stroke-width="0.1"/>
</svg>
