<svg width="36" height="50" viewBox="0 0 36 50" fill="none" xmlns="http://www.w3.org/2000/svg">
<path d="M34.3642 0H1.63639C1.20246 0 0.786047 0.1756 0.479228 0.488095C0.17241 0.80059 0 1.2247 0 1.66667V48.3333C0 48.7753 0.17241 49.1994 0.479228 49.5119C0.786047 49.8244 1.20246 50 1.63639 50H1.85408C2.28802 50 2.70405 49.8244 3.01087 49.5115L18.1077 34.1334L33.2065 49.5115H33.2068C33.5136 49.824 33.9297 49.9996 34.3636 49.9996C34.7975 49.9996 35.2136 49.824 35.5208 49.5115C35.8276 49.199 36 48.7753 36 48.3333V1.66668C36 1.22471 35.8276 0.8006 35.5208 0.488105C35.214 0.175609 34.7975 9.44592e-06 34.3636 9.44592e-06L34.3642 0Z" fill="#045457"/>
</svg>
