<svg width="8" height="7" viewBox="0 0 8 7" fill="none" xmlns="http://www.w3.org/2000/svg">
<path d="M7.63648 0H0.363642C0.267212 0 0.174677 0.024584 0.106495 0.0683333C0.0383133 0.112083 0 0.171459 0 0.233333V6.76667C0 6.82854 0.0383133 6.88792 0.106495 6.93167C0.174677 6.97542 0.267212 7 0.363642 7H0.412019C0.508448 7 0.600901 6.97542 0.669083 6.93161L4.02394 4.77868L7.37921 6.93161H7.37929C7.44748 6.97536 7.53993 6.99995 7.63636 6.99995C7.73279 6.99995 7.82524 6.97536 7.89351 6.93161C7.96169 6.88787 8 6.82854 8 6.76667V0.233335C8 0.17146 7.96169 0.112084 7.89351 0.0683347C7.82532 0.0245853 7.73279 1.32243e-06 7.63636 1.32243e-06L7.63648 0Z" fill="white"/>
</svg>
