<svg width="29" height="165" viewBox="0 0 29 165" fill="none" xmlns="http://www.w3.org/2000/svg">
<path d="M14.4396 149.064C15.8344 149.064 16.9651 147.942 16.9651 146.559C16.9651 145.176 15.8344 144.055 14.4396 144.055C13.0448 144.055 11.9141 145.176 11.9141 146.559C11.9141 147.942 13.0448 149.064 14.4396 149.064Z" stroke="#C0C0C0" stroke-width="2.50445" stroke-linecap="round" stroke-linejoin="round"/>
<path d="M14.5111 161.29C14.5111 161.29 23.3504 155.222 23.3504 147.419C23.3504 145.12 22.4191 142.915 20.7614 141.289C19.1037 139.663 16.8554 138.75 14.5111 138.75C12.1668 138.75 9.91851 139.663 8.26083 141.289C6.60315 142.915 5.67188 145.12 5.67188 147.419C5.67188 155.222 14.5111 161.29 14.5111 161.29Z" stroke="#C0C0C0" stroke-width="2.50445" stroke-linecap="round" stroke-linejoin="round"/>
<circle cx="14.4966" cy="39.3248" r="3.5357" fill="#C0C0C0"/>
<circle cx="14.5123" cy="106.715" r="3.5357" fill="#C0C0C0"/>
<circle cx="14.5123" cy="79.7584" r="3.5357" fill="#C0C0C0"/>
<circle cx="14.5123" cy="52.8013" r="3.5357" fill="#C0C0C0"/>
<circle cx="14.5123" cy="120.196" r="3.5357" fill="#C0C0C0"/>
<path d="M18.048 93.2388C18.048 95.1915 16.465 96.7745 14.5123 96.7745C12.5595 96.7745 10.9766 95.1915 10.9766 93.2388C10.9766 91.2861 12.5595 89.7031 14.5123 89.7031C16.465 89.7031 18.048 91.2861 18.048 93.2388Z" fill="#C0C0C0"/>
<circle cx="14.5123" cy="66.2818" r="3.5357" fill="#C0C0C0"/>
<circle cx="14.0658" cy="14.1439" r="10.6071" stroke="#C0C0C0" stroke-width="2.65177"/>
</svg>
