<svg width="34" height="34" viewBox="0 0 34 34" fill="none" xmlns="http://www.w3.org/2000/svg">
<path d="M22.419 20.8511C24.0079 18.8635 24.7753 16.3427 24.5636 13.8069C24.352 11.2712 23.1772 8.91284 21.2808 7.21575C19.3844 5.51899 16.9101 4.6128 14.3666 4.68354C11.823 4.7541 9.40254 5.79603 7.60331 7.5955C5.80385 9.39478 4.7619 11.815 4.69135 14.3588C4.62061 16.9025 5.5268 19.3768 7.22356 21.273C8.92032 23.1694 11.2789 24.3441 13.8147 24.5558C16.3506 24.7675 18.8715 24 20.8589 22.4112L27.1281 28.6803C27.4083 28.9511 27.8106 29.0538 28.1863 28.9509C28.5622 28.8479 28.8557 28.5544 28.9588 28.1785C29.0617 27.8028 28.959 27.4005 28.6882 27.1203L22.419 20.8511ZM14.6679 22.3837C12.6196 22.3837 10.6551 21.5698 9.20683 20.1215C7.75832 18.673 6.94467 16.7086 6.94467 14.66C6.94467 12.6117 7.75832 10.6471 9.20683 9.19892C10.6551 7.75041 12.6197 6.93676 14.6679 6.93676C16.7163 6.93676 18.6807 7.75041 20.1294 9.19892C21.5777 10.6472 22.3916 12.6118 22.3916 14.66C22.3892 16.7077 21.5746 18.6708 20.1268 20.1187C18.6789 21.5664 16.7157 22.381 14.6681 22.3834L14.6679 22.3837Z" fill="white"/>
</svg>
