<svg width="36" height="35" viewBox="0 0 36 35" fill="none" xmlns="http://www.w3.org/2000/svg">
<path d="M10.1287 28.3281C10.5236 28.723 11.1639 28.723 11.5588 28.3281L17.9943 21.8926C18.3892 21.4977 18.3892 20.8574 17.9943 20.4625C17.5994 20.0676 16.9591 20.0676 16.5642 20.4625L10.8437 26.1829L5.12333 20.4625C4.72842 20.0676 4.08814 20.0676 3.69323 20.4625C3.29832 20.8574 3.29832 21.4977 3.69323 21.8926L10.1287 28.3281ZM9.83251 6.3125L9.83251 27.613L11.855 27.613L11.855 6.3125L9.83251 6.3125Z" fill="#C0C0C0"/>
<path d="M25.7619 5.59772C25.367 5.2028 24.7267 5.2028 24.3318 5.59772L17.8964 12.0332C17.5014 12.4281 17.5014 13.0684 17.8964 13.4633C18.2913 13.8582 18.9315 13.8582 19.3265 13.4633L25.0469 7.74287L30.7673 13.4633C31.1622 13.8582 31.8025 13.8582 32.1974 13.4633C32.5923 13.0684 32.5923 12.4281 32.1974 12.0332L25.7619 5.59772ZM26.0581 27.6133L26.0581 6.31277L24.0356 6.31277L24.0356 27.6133L26.0581 27.6133Z" fill="#C0C0C0"/>
</svg>
