<svg width="89" height="89" viewBox="0 0 89 89" fill="none" xmlns="http://www.w3.org/2000/svg">
<path d="M44.5001 81.5833C24.019 81.5833 7.41675 64.9811 7.41675 44.5C7.41675 24.0189 24.019 7.41667 44.5001 7.41667C64.9812 7.41667 81.5834 24.0189 81.5834 44.5C81.5834 64.9811 64.9812 81.5833 44.5001 81.5833ZM44.5001 74.1667C52.3682 74.1667 59.914 71.0411 65.4776 65.4775C71.0412 59.9139 74.1667 52.3681 74.1667 44.5C74.1667 36.6319 71.0412 29.0861 65.4776 23.5225C59.914 17.9589 52.3682 14.8333 44.5001 14.8333C36.632 14.8333 29.0862 17.9589 23.5226 23.5225C17.959 29.0861 14.8334 36.6319 14.8334 44.5C14.8334 52.3681 17.959 59.9139 23.5226 65.4775C29.0862 71.0411 36.632 74.1667 44.5001 74.1667ZM44.5001 39.2564L54.9873 28.7655L60.2345 34.0128L49.7437 44.5L60.2345 54.9872L54.9873 60.2345L44.5001 49.7436L34.0129 60.2345L28.7656 54.9872L39.2565 44.5L28.7656 34.0128L34.0129 28.7655L44.5001 39.2564Z" fill="white"/>
</svg>
