<svg width="89" height="89" viewBox="0 0 89 89" fill="none" xmlns="http://www.w3.org/2000/svg">
<path d="M44.5001 7.4167C24.019 7.4167 7.41675 24.0189 7.41675 44.5C7.41675 64.9812 24.019 81.5834 44.5001 81.5834C64.9812 81.5834 81.5834 64.9812 81.5834 44.5C81.5834 24.0189 64.9812 7.4167 44.5001 7.4167ZM44.5001 14.8334C52.3682 14.8334 59.914 17.959 65.4776 23.5225C71.0412 29.0861 74.1667 36.632 74.1667 44.5C74.1667 52.3681 71.0412 59.914 65.4776 65.4775C59.914 71.0411 52.3682 74.1667 44.5001 74.1667C36.632 74.1667 29.0862 71.0411 23.5226 65.4775C17.959 59.914 14.8334 52.3681 14.8334 44.5C14.8334 36.632 17.959 29.0861 23.5226 23.5225C29.0862 17.959 36.632 14.8334 44.5001 14.8334ZM40.7917 33.375H48.2084V25.9584H40.7917V33.375ZM40.7917 63.0417H48.2084V40.7917H40.7917V63.0417Z" fill="white"/>
</svg>
