<svg width="75" height="75" viewBox="0 0 75 75" fill="none" xmlns="http://www.w3.org/2000/svg">
<path d="M37.5001 74.5833C17.019 74.5833 0.416748 57.9811 0.416748 37.5C0.416748 17.0189 17.019 0.416656 37.5001 0.416656C57.9812 0.416656 74.5834 17.0189 74.5834 37.5C74.5834 57.9811 57.9812 74.5833 37.5001 74.5833ZM37.5001 67.1667C45.3682 67.1667 52.914 64.0411 58.4776 58.4775C64.0412 52.9139 67.1667 45.3681 67.1667 37.5C67.1667 29.6319 64.0412 22.0861 58.4776 16.5225C52.914 10.9589 45.3682 7.83332 37.5001 7.83332C29.632 7.83332 22.0862 10.9589 16.5226 16.5225C10.959 22.0861 7.83342 29.6319 7.83342 37.5C7.83342 45.3681 10.959 52.9139 16.5226 58.4775C22.0862 64.0411 29.632 67.1667 37.5001 67.1667ZM33.8029 52.3333L18.0684 36.5989L23.312 31.3553L33.8029 41.8462L54.7772 20.8681L60.0245 26.1117L33.8029 52.3333Z" fill="white"/>
</svg>
