<svg width="89" height="89" viewBox="0 0 89 89" fill="none" xmlns="http://www.w3.org/2000/svg">
<path d="M44.5001 81.5833C24.019 81.5833 7.41675 64.9811 7.41675 44.4999C7.41675 24.0188 24.019 7.41661 44.5001 7.41661C64.9812 7.41661 81.5834 24.0188 81.5834 44.4999C81.5834 64.9811 64.9812 81.5833 44.5001 81.5833ZM44.5001 74.1666C52.3682 74.1666 59.914 71.041 65.4776 65.4774C71.0412 59.9139 74.1667 52.368 74.1667 44.4999C74.1667 36.6319 71.0412 29.086 65.4776 23.5224C59.914 17.9589 52.3682 14.8333 44.5001 14.8333C36.632 14.8333 29.0862 17.9589 23.5226 23.5224C17.959 29.086 14.8334 36.6319 14.8334 44.4999C14.8334 52.368 17.959 59.9139 23.5226 65.4774C29.0862 71.041 36.632 74.1666 44.5001 74.1666ZM40.7917 55.6249H48.2084V63.0416H40.7917V55.6249ZM40.7917 25.9583H48.2084V48.2083H40.7917V25.9583Z" fill="white"/>
</svg>
